<?xml version="1.0" encoding="UTF-8"?>
<svg class="w-6 h-6" xmlns="http://www.w3.org/2000/svg" viewBox="0 0 807 653">
<path d="M0 0 C1.31677734 0.25716797 1.31677734 0.25716797 2.66015625 0.51953125 C10.98921177 2.3770904 17.80860179 6.58017716 25 11 C25 11.66 25 12.32 25 13 C25.58265625 13.26941406 26.1653125 13.53882812 26.765625 13.81640625 C29.01108176 15.00587023 30.80694844 16.30583491 32.75 17.9375 C33.36359375 18.44152344 33.9771875 18.94554688 34.609375 19.46484375 C36 21 36 21 36 24 C36.99 24.33 37.98 24.66 39 25 C40.16796875 26.5234375 40.16796875 26.5234375 41.1875 28.375 C41.70376953 29.28378906 41.70376953 29.28378906 42.23046875 30.2109375 C43 32 43 32 43 35 C43.99 35.33 44.98 35.66 46 36 C49.42992523 41.9609735 50.56315075 48.22883663 51 55 C45.47239641 57.10575375 40.93002267 58.37851209 35 58 C34.56300781 57.00033203 34.56300781 57.00033203 34.1171875 55.98046875 C32.77845945 52.97043557 31.39697646 49.98343643 30 47 C29.5771875 46.07832031 29.154375 45.15664062 28.71875 44.20703125 C22.45437585 31.58723099 13.13491986 23.79870608 0 19 C-0.62205322 18.73509766 -1.24410645 18.47019531 -1.88500977 18.19726562 C-9.02598221 15.39512241 -16.09765529 15.48485817 -23.6875 15.5 C-25.59692383 15.45746094 -25.59692383 15.45746094 -27.54492188 15.4140625 C-40.32882333 15.38806575 -50.37240957 18.9817799 -61 26 C-61.99 26 -62.98 26 -64 26 C-64.268125 26.5775 -64.53625 27.155 -64.8125 27.75 C-66.02929189 30.05550043 -67.30333879 32.02056192 -69 34 C-69.66 34 -70.32 34 -71 34 C-72.5600175 37.06971185 -74.01400783 40.17726958 -75.4375 43.3125 C-75.84871094 44.21613281 -76.25992187 45.11976563 -76.68359375 46.05078125 C-77.33521484 47.51064453 -77.33521484 47.51064453 -78 49 C-78.50273437 50.04542969 -79.00546875 51.09085938 -79.5234375 52.16796875 C-89.03788654 74.55975877 -86.04149347 101.74021373 -78 124 C-77.66484375 124.94359375 -77.3296875 125.8871875 -76.984375 126.859375 C-71.9405624 139.4333867 -62.45091809 147.90239915 -50.20703125 153.2109375 C-41.3792482 156.6446407 -32.99984508 157.18070663 -23.625 157.1875 C-22.30242187 157.20586914 -22.30242187 157.20586914 -20.953125 157.22460938 C-11.34953887 157.24573163 -3.1648246 155.60723378 5.375 151.1875 C6.05949219 150.85685547 6.74398437 150.52621094 7.44921875 150.18554688 C11.69895307 148.03592398 14.13096836 145.89562827 17 142 C17.66 142 18.32 142 19 142 C19.37125 141.2265625 19.37125 141.2265625 19.75 140.4375 C21 138 21 138 23.0625 135 C27.27013457 127.68373989 26.40224093 118.03101623 25 110 C24.34 109.01 23.68 108.02 23 107 C23 106.01 23 105.02 23 104 C22.443125 103.731875 21.88625 103.46375 21.3125 103.1875 C18.80287477 101.89877353 16.40665764 100.47073522 14 99 C13.97421875 99.556875 13.9484375 100.11375 13.921875 100.6875 C13.47850654 106.65282104 12.03445128 110.88365982 9 116 C8.61199219 116.74378906 8.22398437 117.48757812 7.82421875 118.25390625 C3.42451702 125.92418272 -3.69670066 130.23223355 -12 133 C-25.55639473 134.31158725 -38.85153799 134.71928775 -50 126 C-58.48048942 116.91287703 -59.26979093 108.2286234 -58.875 96.1875 C-57.02823761 89.46000844 -53.90299116 83.88733564 -48 80 C-47.175 79.34 -46.35 78.68 -45.5 78 C-33.46549478 70.4559818 -18.7023676 70.90940647 -5 72 C-4.34 72.33 -3.68 72.66 -3 73 C-4.41475442 69.56416784 -5.77435511 66.37607482 -7.6875 63.1875 C-9 61 -9 61 -9 59 C-18.29147799 56.08502651 -28.24515341 55.21677772 -37.12109375 59.77734375 C-39.85879986 61.55884481 -41.87060017 63.52714858 -44 66 C-44.68707031 65.51789063 -45.37414062 65.03578125 -46.08203125 64.5390625 C-47.43361328 63.59160156 -47.43361328 63.59160156 -48.8125 62.625 C-49.70582031 61.99851563 -50.59914063 61.37203125 -51.51953125 60.7265625 C-53.33267878 59.46449761 -55.16188211 58.22541192 -57 57 C-57 56.01 -57 55.02 -57 54 C-56.34 54 -55.68 54 -55 54 C-54.9175 53.4225 -54.835 52.845 -54.75 52.25 C-52.94273761 46.82821282 -47.29512539 43.83349859 -42.46875 41.32373047 C-32.23864148 36.72273916 -17.91666501 36.61027845 -7.4140625 40.4453125 C-3.17960962 42.32346357 0.89083746 44.16635557 3.3515625 48.234375 C3.56554687 48.81703125 3.77953125 49.3996875 4 50 C4.66 50 5.32 50 6 50 C13.3585036 59.28490431 15.3671037 67.43623345 15 79 C16.546875 79.37125 16.546875 79.37125 18.125 79.75 C21.93274148 80.8357104 24.86402115 82.55240675 28 85 C28 85.66 28 86.32 28 87 C29.32 87.66 30.64 88.32 32 89 C32 89.66 32 90.32 32 91 C32.598125 91.226875 33.19625 91.45375 33.8125 91.6875 C38.91792448 94.75075469 41.09605065 101.73573847 42.6328125 107.28515625 C45.76991436 121.2253765 43.95011897 133.84910605 37.6328125 146.56640625 C35.86963952 149.19429326 34.74922861 149.65989484 32 151 C31.63062933 152.32380293 31.29947456 153.65865594 31 155 C28.62464312 157.66064779 25.79252935 159.79001816 23 162 C22.24203125 162.61617187 21.4840625 163.23234375 20.703125 163.8671875 C14.25399184 168.77780196 7.84220058 171.12202417 0 173 C-0.87527344 173.22558594 -1.75054687 173.45117188 -2.65234375 173.68359375 C-22.31304879 177.8697938 -47.62460007 176.98462495 -65 166.125 C-65.99 165.42375 -66.98 164.7225 -68 164 C-68.76957031 163.51144531 -69.53914063 163.02289063 -70.33203125 162.51953125 C-71.55986328 161.73642578 -71.55986328 161.73642578 -72.8125 160.9375 C-73.58207031 160.45152344 -74.35164063 159.96554688 -75.14453125 159.46484375 C-77 158 -77 158 -78 155 C-78.66 155 -79.32 155 -80 155 C-94.29018683 142.91127438 -100.24505852 120.92373167 -101.79272461 103.13525391 C-102.16607971 97.48787321 -102.19133829 91.84551918 -102.1875 86.1875 C-102.1862915 84.33354614 -102.1862915 84.33354614 -102.18505859 82.44213867 C-102.12892941 74.10255226 -101.70315087 66.18227028 -100 58 C-99.86722656 57.20722656 -99.73445313 56.41445312 -99.59765625 55.59765625 C-96.84755495 40.69472633 -88.74741115 26.4718365 -78 16 C-77.53980469 15.5153125 -77.07960938 15.030625 -76.60546875 14.53125 C-73.44864483 11.52036198 -69.67339617 9.32589838 -66 7 C-65.28457031 6.53980469 -64.56914062 6.07960938 -63.83203125 5.60546875 C-46.52064499 -4.83181514 -19.08591496 -4.67470928 0 0 Z M-38 94 C-38 94.66 -38 95.32 -38 96 C-38.66 96 -39.32 96 -40 96 C-42.69342689 100.04014033 -42.65977537 103.25629863 -42 108 C-39.92801753 111.81244774 -37.34288801 113.95243987 -33.25 115.49609375 C-26.51186441 117.00515537 -18.12122443 117.16823378 -11.71484375 114.296875 C-6.00008247 109.97500542 -3.48647055 102.71613011 -2.2265625 95.91015625 C-1.9411081 93.82407129 -1.9411081 93.82407129 -2 91 C-4.08272894 90.66291092 -6.16621037 90.33046884 -8.25 90 C-9.99023438 89.7215625 -9.99023438 89.7215625 -11.765625 89.4375 C-20.73003667 88.22492258 -29.94218145 89.97109072 -38 94 Z " fill="#EEEEEE" transform="translate(379,90)"/>
</svg>
