<?xml version="1.0" standalone="no"?>
<!DOCTYPE svg PUBLIC "-//W3C//DTD SVG 20010904//EN"
 "http://www.w3.org/TR/2001/REC-SVG-20010904/DTD/svg10.dtd">
<svg version="1.0" xmlns="http://www.w3.org/2000/svg"
 width="1348.000000pt" height="694.000000pt" viewBox="0 0 1348.000000 694.000000"
 preserveAspectRatio="xMidYMid meet">

<g transform="translate(0.000000,694.000000) scale(0.100000,-0.100000)"
fill="#000000" stroke="none">
<path d="M4610 6250 l0 -130 25 0 c23 0 25 4 25 45 0 45 0 45 36 45 40 0 94
44 94 77 -1 65 -38 93 -125 93 l-55 0 0 -130z m101 80 c21 -12 25 -50 7 -68
-7 -7 -22 -12 -35 -12 -21 0 -23 5 -23 45 0 48 11 56 51 35z"/>
<path d="M4830 6250 l0 -130 70 0 c63 0 70 2 70 19 0 16 -8 20 -42 23 -40 3
-43 5 -43 33 0 27 3 30 38 33 29 3 37 7 37 23 0 16 -7 19 -41 19 -39 0 -40 1
-37 33 3 30 6 32 46 35 34 3 42 7 42 23 0 17 -7 19 -70 19 l-70 0 0 -130z"/>
<path d="M5020 6250 l0 -130 25 0 c23 0 25 3 25 50 0 72 28 69 70 -7 19 -35
29 -43 52 -43 15 0 28 3 28 8 0 4 -15 30 -33 58 l-34 51 24 27 c30 35 29 61
-2 91 -21 22 -33 25 -90 25 l-65 0 0 -130z m114 68 c15 -25 -3 -52 -38 -56
-24 -3 -26 -1 -26 38 0 39 2 41 26 38 15 -2 32 -11 38 -20z"/>
<path d="M5278 6364 c-30 -16 -44 -50 -33 -83 3 -12 29 -33 56 -46 34 -18 49
-31 49 -45 0 -27 -40 -35 -79 -16 l-31 17 0 -30 c0 -26 4 -31 35 -37 78 -14
135 16 135 72 0 34 -16 51 -79 86 -36 20 -39 33 -10 48 14 8 29 8 50 1 27 -9
29 -8 29 13 0 13 -7 27 -16 30 -27 10 -78 6 -106 -10z"/>
<path d="M5515 6371 c-92 -41 -99 -193 -10 -235 94 -45 175 12 175 123 0 69
-36 111 -100 117 -25 2 -54 0 -65 -5z m89 -57 c50 -50 21 -144 -44 -144 -36 0
-60 32 -60 80 0 48 24 80 60 80 16 0 36 -7 44 -16z"/>
<path d="M5730 6250 l0 -130 25 0 c25 0 25 1 25 93 l0 92 60 -92 c49 -77 64
-93 85 -93 l25 0 0 130 0 130 -25 0 c-25 0 -25 -1 -25 -87 l-1 -88 -56 88
c-49 76 -59 87 -84 87 l-29 0 0 -130z"/>
<path d="M6075 6368 c-25 -67 -85 -240 -85 -243 0 -3 13 -5 29 -5 25 0 31 5
36 30 6 28 9 30 55 30 46 0 49 -2 55 -30 6 -25 11 -30 37 -30 20 0 29 4 25 13
-2 6 -22 65 -43 130 l-38 117 -33 0 c-19 0 -36 -6 -38 -12z m45 -73 c26 -67
25 -75 -10 -75 -29 0 -32 2 -26 23 4 12 9 34 12 50 8 34 12 34 24 2z"/>
<path d="M6270 6250 l0 -130 70 0 c63 0 70 2 70 19 0 16 -8 20 -42 23 l-43 3
-3 108 c-3 106 -3 107 -27 107 l-25 0 0 -130z"/>
<path d="M6530 6361 c0 -15 8 -21 33 -23 l32 -3 3 -107 c3 -107 3 -108 27
-108 24 0 24 1 27 108 l3 107 33 3 c24 2 32 8 32 23 0 17 -8 19 -95 19 -87 0
-95 -2 -95 -19z"/>
<path d="M6805 6371 c-92 -41 -99 -193 -10 -235 94 -45 175 12 175 123 0 69
-36 111 -100 117 -25 2 -54 0 -65 -5z m89 -57 c50 -50 21 -144 -44 -144 -36 0
-60 32 -60 80 0 48 24 80 60 80 16 0 36 -7 44 -16z"/>
<path d="M7020 6250 l0 -130 55 0 c102 0 155 38 163 118 9 96 -42 142 -158
142 l-60 0 0 -130z m143 58 c19 -22 23 -79 7 -108 -11 -20 -74 -45 -90 -35
-11 7 -14 158 -3 169 12 12 67 -5 86 -26z"/>
<path d="M7345 6371 c-92 -41 -99 -193 -10 -235 94 -45 175 12 175 123 0 69
-36 111 -100 117 -25 2 -54 0 -65 -5z m89 -57 c50 -50 21 -144 -44 -144 -36 0
-60 32 -60 80 0 48 24 80 60 80 16 0 36 -7 44 -16z"/>
<path d="M7704 6328 c-9 -29 -30 -88 -45 -131 l-29 -78 32 3 c25 2 34 9 38 28
5 22 12 25 52 28 43 3 46 1 56 -27 9 -25 16 -31 41 -31 l31 0 -45 126 c-25 70
-45 128 -45 130 0 2 -15 4 -34 4 -33 0 -35 -3 -52 -52z m70 -61 l14 -47 -34 0
c-19 0 -34 1 -34 3 0 11 33 97 36 94 2 -2 10 -25 18 -50z"/>
<path d="M7910 6251 l0 -131 24 0 c22 0 25 5 28 43 3 42 3 42 47 48 54 7 81
36 81 89 0 55 -26 74 -111 78 l-69 4 0 -131z m115 64 c20 -32 2 -65 -35 -65
-28 0 -30 2 -30 38 0 21 3 42 7 46 13 12 45 2 58 -19z"/>
<path d="M8130 6251 l0 -131 24 0 c22 0 25 5 28 43 3 42 3 42 47 48 54 7 81
36 81 89 0 55 -26 74 -111 78 l-69 4 0 -131z m115 64 c20 -32 2 -65 -35 -65
-28 0 -30 2 -30 38 0 21 3 42 7 46 13 12 45 2 58 -19z"/>
<path d="M8494 6367 c-2 -7 -3 -76 -2 -152 l3 -140 170 0 170 0 0 150 c0 121
-3 150 -14 150 -10 0 -14 -18 -15 -70 l-1 -70 -137 -3 -138 -3 0 76 c0 61 -3
75 -15 75 -9 0 -18 -6 -21 -13z m216 -222 c0 -22 -4 -25 -40 -25 -36 0 -40 3
-40 25 0 23 4 25 40 25 36 0 40 -2 40 -25z"/>
<path d="M8570 6300 c0 -5 16 -10 35 -10 19 0 35 5 35 10 0 6 -16 10 -35 10
-19 0 -35 -4 -35 -10z"/>
<path d="M12715 5595 l-25 -24 0 -221 0 -221 25 -24 24 -25 221 0 221 0 24 25
25 24 0 221 0 221 -25 24 -24 25 -221 0 -221 0 -24 -25z m255 -200 c0 -33 2
-35 35 -35 19 0 35 -4 35 -10 0 -5 -16 -10 -35 -10 -33 0 -35 -2 -35 -35 0
-19 -4 -35 -10 -35 -5 0 -10 16 -10 35 0 33 -2 35 -35 35 -19 0 -35 5 -35 10
0 6 16 10 35 10 33 0 35 2 35 35 0 19 5 35 10 35 6 0 10 -16 10 -35z"/>
<path d="M12715 4725 l-25 -24 0 -221 0 -221 25 -24 24 -25 221 0 221 0 24 25
25 24 0 221 0 221 -25 24 -24 25 -221 0 -221 0 -24 -25z m294 -121 c40 -33 58
-90 42 -135 -11 -31 -9 -35 24 -69 64 -66 31 -100 -35 -36 -34 34 -36 34 -76
24 -36 -10 -47 -8 -86 10 -51 25 -68 54 -68 116 0 47 27 91 64 106 44 18 103
11 135 -16z"/>
<path d="M12873 4582 c-70 -53 -26 -172 62 -172 85 1 125 117 58 170 -32 25
-90 26 -120 2z"/>
<path d="M2175 4545 c-24 -24 -25 -27 -25 -185 0 -158 1 -161 25 -185 l24 -25
991 0 991 0 24 25 c24 24 25 27 25 185 0 158 -1 161 -25 185 l-24 25 -991 0
-991 0 -24 -25z m495 -157 c0 -39 1 -40 18 -25 10 10 27 17 38 17 16 0 15 -3
-9 -27 l-27 -27 27 -28 c26 -27 26 -28 5 -28 -11 0 -28 10 -36 22 l-16 22 0
-22 c0 -12 -4 -22 -10 -22 -6 0 -10 33 -10 80 0 47 4 80 10 80 6 0 10 -19 10
-42z m300 -38 c0 -64 -3 -80 -15 -80 -12 0 -15 16 -15 80 0 64 3 80 15 80 12
0 15 -16 15 -80z m50 0 c0 -47 -4 -80 -10 -80 -6 0 -10 33 -10 80 0 47 4 80
10 80 6 0 10 -33 10 -80z m670 0 c0 -64 -3 -80 -15 -80 -12 0 -15 16 -15 80 0
64 3 80 15 80 12 0 15 -16 15 -80z m410 1 l0 -79 -47 2 -48 1 -3 38 c-4 47 11
67 49 67 24 0 29 4 29 25 0 14 5 25 10 25 6 0 10 -33 10 -79z m-1765 19 c11
-27 22 -50 25 -50 3 0 14 23 25 50 13 34 25 50 37 50 16 0 18 -10 18 -75 0
-60 -3 -75 -15 -75 -11 0 -15 12 -16 43 l0 42 -19 -42 c-11 -24 -24 -43 -30
-43 -6 0 -19 19 -30 43 l-19 42 0 -42 c-1 -31 -5 -43 -16 -43 -12 0 -15 15
-15 75 0 65 2 75 18 75 12 0 24 -16 37 -50z m569 -21 c30 -82 30 -79 12 -79
-8 0 -18 9 -21 20 -4 14 -15 20 -35 20 -19 0 -29 -6 -33 -20 -3 -11 -12 -20
-21 -20 -13 0 -11 11 10 67 14 37 28 71 30 75 14 23 34 1 58 -63z m306 61 c0
-5 -13 -10 -29 -10 -31 0 -61 -30 -61 -61 0 -27 36 -52 65 -45 18 5 25 2 25
-9 0 -21 -68 -20 -92 2 -23 21 -24 89 -1 115 17 19 93 26 93 8z m640 -15 c0
-8 7 -15 15 -15 8 0 15 -4 15 -10 0 -5 -7 -10 -15 -10 -10 0 -15 -11 -15 -35
0 -24 5 -35 15 -35 8 0 15 -4 15 -10 0 -5 -11 -10 -25 -10 -23 0 -25 4 -25 44
0 26 -5 47 -12 50 -10 5 -10 7 0 12 6 3 12 12 12 20 0 8 5 14 10 14 6 0 10 -7
10 -15z m-1302 -73 l3 -53 -43 3 c-39 3 -43 6 -46 31 -3 23 1 28 27 33 17 4
31 11 31 16 0 6 -11 7 -25 4 -19 -5 -25 -2 -25 9 0 13 9 15 38 13 l37 -3 3
-53z m92 49 c0 -5 -9 -13 -20 -16 -16 -5 -20 -15 -20 -46 0 -28 -4 -39 -15
-39 -12 0 -15 13 -15 55 l0 55 35 0 c19 0 35 -4 35 -9z m692 -16 c19 -41 0
-79 -40 -83 -43 -4 -62 12 -62 52 0 41 16 56 57 56 26 0 36 -6 45 -25z m176
-32 c2 -32 -1 -53 -7 -53 -6 0 -11 15 -11 33 0 17 -4 38 -9 46 -15 23 -31 2
-31 -40 0 -57 -28 -54 -32 4 -2 29 -8 42 -18 42 -10 0 -16 -13 -18 -42 -5 -63
-22 -52 -22 12 l0 56 73 -3 72 -3 3 -52z m126 41 c10 -26 7 -69 -6 -82 -7 -7
-25 -12 -40 -12 -23 0 -28 -4 -28 -25 0 -14 -4 -25 -10 -25 -6 0 -10 33 -10
80 l0 80 44 0 c31 0 46 -5 50 -16z m164 -16 c3 -26 1 -28 -33 -28 -25 0 -35
-4 -32 -12 2 -7 18 -12 36 -11 45 2 34 -21 -12 -25 -32 -3 -38 0 -47 24 -8 20
-8 36 1 56 10 25 16 29 48 26 31 -3 36 -7 39 -30z m182 13 c17 -33 11 -41 -30
-41 -32 0 -38 -3 -33 -16 4 -12 14 -14 35 -10 21 4 28 2 25 -7 -2 -7 -21 -12
-43 -12 -38 0 -39 1 -42 38 -2 21 2 45 9 53 17 21 66 18 79 -5z"/>
<path d="M4025 4341 c-7 -23 3 -51 20 -51 20 0 37 27 30 50 -8 25 -42 26 -50
1z"/>
<path d="M2852 4360 c-7 -19 -6 -26 5 -28 21 -5 25 2 14 29 l-9 24 -10 -25z"/>
<path d="M2485 4311 c-3 -5 -1 -12 5 -16 12 -7 30 2 30 16 0 12 -27 12 -35 0z"/>
<path d="M3256 4342 c-10 -30 4 -53 28 -50 31 4 30 62 -1 66 -14 2 -23 -3 -27
-16z"/>
<path d="M3570 4345 c-14 -17 -4 -55 14 -55 21 0 38 27 31 50 -7 23 -27 26
-45 5z"/>
<path d="M3735 4350 c-4 -6 5 -10 20 -10 15 0 24 4 20 10 -3 6 -12 10 -20 10
-8 0 -17 -4 -20 -10z"/>
<path d="M3915 4350 c-4 -6 5 -10 20 -10 15 0 24 4 20 10 -3 6 -12 10 -20 10
-8 0 -17 -4 -20 -10z"/>
<path d="M747 4423 c-4 -3 -7 -15 -7 -25 0 -10 -6 -18 -12 -18 -10 0 -10 -2
-1 -8 6 -4 13 -30 16 -57 l3 -50 2 52 c2 40 6 53 20 56 16 4 16 5 0 6 -10 0
-18 8 -18 16 0 7 8 19 18 24 14 9 15 10 1 11 -9 0 -19 -3 -22 -7z"/>
<path d="M1020 4350 c0 -47 4 -80 10 -80 6 0 10 33 10 80 0 47 -4 80 -10 80
-6 0 -10 -33 -10 -80z"/>
<path d="M480 4345 l0 -75 29 0 c44 0 81 35 81 76 0 45 -29 74 -75 74 l-35 0
0 -75z m88 38 c19 -26 15 -51 -13 -79 -39 -38 -59 -29 -63 30 -4 67 2 80 36
72 15 -4 33 -14 40 -23z"/>
<path d="M1081 4398 c0 -10 -7 -18 -13 -18 -10 0 -10 -2 -1 -8 6 -4 13 -27 15
-52 2 -36 7 -45 23 -48 18 -2 18 -2 3 8 -12 7 -18 23 -18 45 0 22 6 38 18 44
15 9 15 10 0 11 -9 0 -19 8 -21 18 -4 16 -5 16 -6 0z"/>
<path d="M1710 4382 c0 -5 14 -21 30 -37 l30 -29 32 32 c37 36 30 57 -7 22
l-25 -23 -23 21 c-24 23 -37 28 -37 14z"/>
<path d="M631 4366 c-17 -20 -10 -77 11 -89 11 -8 23 -7 40 1 l23 12 -23 -6
c-25 -6 -52 10 -52 32 0 9 12 14 35 14 36 0 46 15 23 38 -16 16 -43 15 -57 -2z
m43 -2 c27 -10 18 -24 -15 -24 -27 0 -30 2 -19 15 14 17 13 17 34 9z"/>
<path d="M804 4368 c-5 -8 -2 -9 11 -5 9 4 24 2 32 -5 13 -10 10 -14 -18 -23
-26 -9 -34 -17 -34 -36 0 -21 5 -24 38 -24 37 -1 37 0 37 40 0 23 -5 46 -12
53 -15 15 -45 15 -54 0z m50 -47 c3 -4 -1 -16 -8 -27 -12 -16 -16 -16 -31 -4
-16 13 -16 15 1 27 21 15 31 16 38 4z"/>
<path d="M900 4336 c0 -50 12 -63 58 -63 l32 0 0 54 c0 29 -4 53 -10 53 -5 0
-10 -20 -10 -44 0 -31 -5 -46 -16 -50 -26 -10 -34 2 -34 50 0 24 -4 44 -10 44
-5 0 -10 -20 -10 -44z"/>
<path d="M5951 3673 c-16 -80 -14 -103 7 -103 13 0 14 2 4 9 -12 7 -12 20 1
80 8 39 11 71 7 71 -4 0 -12 -26 -19 -57z"/>
<path d="M6010 3692 c-15 -59 -17 -114 -3 -119 7 -3 10 3 6 15 -3 11 0 46 7
77 14 66 6 86 -10 27z"/>
<path d="M5857 3698 c-59 -96 -75 -128 -67 -128 6 0 16 11 22 25 9 19 19 25
45 25 29 0 33 -3 33 -25 0 -14 5 -25 11 -25 7 0 9 9 6 23 -3 12 -9 46 -13 75
-7 57 -16 64 -37 30z m23 -38 c0 -25 -4 -30 -25 -30 -24 0 -24 0 -7 30 22 38
32 38 32 0z"/>
<path d="M6126 3678 c9 -25 13 -57 9 -75 -4 -20 -2 -33 5 -33 5 0 10 11 10 23
0 13 13 42 28 63 39 54 44 64 35 64 -4 0 -18 -16 -31 -36 -26 -39 -37 -38 -45
6 -4 16 -11 30 -16 30 -6 0 -4 -18 5 -42z"/>
<path d="M6578 3645 c-8 -41 -12 -75 -8 -75 4 0 13 27 19 60 7 33 14 60 16 60
2 0 16 -27 31 -60 15 -33 30 -60 35 -60 4 0 15 31 23 69 19 82 19 84 7 77 -5
-4 -12 -25 -16 -49 -12 -71 -19 -72 -47 -7 -15 33 -31 60 -36 60 -5 0 -16 -34
-24 -75z"/>
<path d="M7161 3649 c-7 -38 -11 -73 -8 -76 3 -3 9 11 12 31 7 34 9 36 47 36
l39 0 -7 -37 c-4 -25 -3 -35 3 -28 9 9 33 112 33 139 0 21 -20 -19 -20 -41 0
-20 -5 -23 -41 -23 l-41 0 6 35 c4 19 3 35 -2 35 -5 0 -14 -32 -21 -71z"/>
<path d="M6861 3698 c0 -10 -4 -18 -8 -18 -14 0 -9 -103 5 -106 7 -1 8 0 2 3
-15 7 -1 75 18 91 9 6 11 12 5 12 -7 0 -14 8 -16 18 -4 16 -5 16 -6 0z"/>
<path d="M6220 3660 c-34 -34 -21 -90 20 -90 42 0 71 90 34 104 -25 9 -33 7
-54 -14z m58 -17 c4 -30 -15 -63 -37 -63 -32 0 -36 42 -8 78 15 19 42 10 45
-15z"/>
<path d="M6326 3658 c-17 -64 5 -107 39 -78 12 10 15 10 15 -1 1 -27 18 15 24
61 5 33 4 41 -3 30 -6 -8 -11 -24 -11 -36 0 -23 -29 -54 -49 -54 -10 0 -11 13
-6 50 7 51 2 67 -9 28z"/>
<path d="M6446 3663 c-10 -36 -17 -99 -8 -78 20 45 30 85 22 90 -5 3 -11 -3
-14 -12z"/>
<path d="M6740 3660 c-34 -34 -21 -90 20 -90 42 0 71 90 34 104 -25 9 -33 7
-54 -14z m58 -17 c4 -30 -15 -63 -37 -63 -32 0 -36 42 -8 78 15 19 42 10 45
-15z"/>
<path d="M6920 3660 c-22 -22 -26 -60 -8 -78 14 -14 44 -16 52 -3 4 5 -3 7
-13 4 -13 -3 -23 2 -30 16 -10 19 -9 21 12 21 13 0 32 6 42 14 16 12 17 16 6
30 -18 21 -37 20 -61 -4z m48 -7 c-2 -10 -13 -19 -26 -21 -24 -4 -29 7 -10 26
18 18 40 15 36 -5z"/>
<path d="M7022 3668 c-18 -18 -15 -34 10 -50 25 -17 17 -38 -14 -38 -12 0 -19
-3 -15 -6 3 -4 18 -4 32 0 28 7 35 43 10 52 -23 9 -18 42 8 47 20 4 20 4 2 6
-12 0 -26 -4 -33 -11z"/>
<path d="M7317 3665 c-39 -39 -27 -96 21 -94 l27 1 -25 7 c-37 10 -36 35 2 46
23 7 33 16 33 30 0 25 -37 32 -58 10z m46 -2 c11 -10 -13 -33 -34 -33 -22 0
-24 11 -7 28 13 13 31 16 41 5z"/>
<path d="M7406 3640 c-3 -21 -9 -45 -12 -54 -3 -9 -2 -16 4 -16 5 0 12 18 16
39 3 23 15 46 26 54 21 14 20 15 -3 15 -21 0 -26 -7 -31 -38z"/>
<path d="M7490 3660 c-22 -22 -26 -60 -8 -78 14 -14 44 -16 52 -3 4 5 -3 7
-13 4 -13 -3 -23 2 -30 16 -10 19 -9 21 12 21 13 0 32 6 42 14 16 12 17 16 6
30 -18 21 -37 20 -61 -4z m48 -7 c-2 -10 -13 -19 -26 -21 -24 -4 -29 7 -10 26
18 18 40 15 36 -5z"/>
<path d="M7570 3580 c0 -5 5 -10 10 -10 6 0 10 5 10 10 0 6 -4 10 -10 10 -5 0
-10 -4 -10 -10z"/>
<path d="M7610 3580 c0 -5 5 -10 10 -10 6 0 10 5 10 10 0 6 -4 10 -10 10 -5 0
-10 -4 -10 -10z"/>
<path d="M7660 3580 c0 -5 5 -10 10 -10 6 0 10 5 10 10 0 6 -4 10 -10 10 -5 0
-10 -4 -10 -10z"/>
<path d="M11425 3235 c-24 -23 -25 -30 -25 -140 0 -110 1 -117 25 -140 24 -25
27 -25 200 -25 173 0 176 0 200 25 24 23 25 30 25 140 0 110 -1 117 -25 140
-24 25 -27 25 -200 25 -173 0 -176 0 -200 -25z m299 -57 c9 -15 2 -27 -44 -73
-59 -60 -100 -73 -100 -33 0 26 98 130 119 126 8 -2 19 -11 25 -20z m-96 -15
c2 -9 -9 -13 -37 -13 l-41 0 0 -65 0 -65 65 0 65 0 0 40 c0 29 4 40 15 40 19
0 21 -80 3 -98 -7 -7 -41 -12 -85 -12 -86 0 -93 8 -93 95 0 80 11 97 62 93 23
-2 43 -9 46 -15z"/>
<path d="M11650 3125 c-24 -25 -42 -45 -39 -45 3 0 25 20 49 45 24 25 42 45
39 45 -3 0 -25 -20 -49 -45z"/>
<path d="M12175 3235 c-24 -23 -25 -30 -25 -140 0 -110 1 -117 25 -140 24 -25
27 -25 200 -25 173 0 176 0 200 25 24 23 25 30 25 140 0 110 -1 117 -25 140
-24 25 -27 25 -200 25 -173 0 -176 0 -200 -25z m249 -41 c29 -4 46 -12 46 -20
0 -11 -21 -14 -95 -14 -76 0 -95 3 -95 14 0 13 15 18 81 24 9 1 37 -1 63 -4z
m30 -111 c-8 -97 -5 -93 -79 -93 -44 0 -67 4 -70 13 -2 6 -5 42 -7 80 l-4 67
83 0 84 0 -7 -67z"/>
<path d="M320 3139 c-16 -14 -19 -19 -7 -15 15 5 17 -2 17 -64 0 -40 4 -70 10
-70 6 0 10 35 10 85 0 47 -1 85 -2 85 -2 0 -14 -10 -28 -21z"/>
<path d="M1948 3142 c-32 -19 -38 -38 -8 -22 19 10 20 8 20 -60 0 -40 4 -70
10 -70 6 0 10 35 10 85 0 47 -1 85 -2 84 -2 0 -15 -8 -30 -17z"/>
<path d="M2063 3153 c-7 -2 -13 -9 -13 -14 0 -6 7 -6 18 0 21 11 52 -3 52 -25
0 -8 -18 -32 -40 -54 -55 -54 -53 -70 10 -70 28 0 50 5 50 10 0 6 -18 10 -40
10 -22 0 -40 4 -40 9 0 5 16 21 35 35 63 48 37 127 -32 99z"/>
<path d="M2246 3147 c-28 -21 -34 -105 -9 -136 43 -53 105 12 88 92 -13 56
-41 72 -79 44z m48 -13 c21 -21 21 -97 0 -118 -12 -12 -20 -13 -35 -6 -25 14
-27 100 -3 124 8 9 17 16 19 16 2 0 11 -7 19 -16z"/>
<path d="M2367 3142 c-24 -26 -23 -113 1 -135 43 -39 82 -5 82 71 0 74 -44
108 -83 64z m64 -29 c7 -18 8 -41 2 -63 -6 -28 -13 -35 -33 -35 -20 0 -27 7
-33 35 -11 46 5 90 33 90 13 0 24 -10 31 -27z"/>
<path d="M1175 3135 c-5 -11 -13 -23 -19 -27 -7 -5 -7 -8 2 -8 8 0 12 -15 12
-43 0 -24 5 -48 12 -55 15 -15 38 -16 38 -2 0 6 -7 10 -15 10 -23 0 -20 76 3
89 15 9 16 10 0 11 -9 0 -18 10 -21 23 -3 21 -4 21 -12 2z"/>
<path d="M1781 3133 c0 -13 -6 -23 -12 -23 -8 0 -8 -4 -1 -13 6 -7 12 -33 14
-57 2 -33 8 -46 21 -48 9 -2 17 1 17 7 0 6 -7 11 -15 11 -23 0 -20 76 3 89 15
9 16 10 0 11 -9 0 -19 10 -21 23 l-4 22 -2 -22z"/>
<path d="M710 3048 c0 -32 4 -58 10 -58 6 0 10 19 10 43 0 46 14 69 36 60 9
-3 14 -22 14 -54 0 -63 18 -64 22 -1 3 43 5 47 28 47 23 0 26 -5 31 -50 l6
-50 1 58 c2 63 -13 81 -50 58 -12 -8 -24 -9 -31 -3 -7 5 -27 9 -44 9 l-33 0 0
-59z"/>
<path d="M926 3094 c-23 -22 -21 -81 3 -94 24 -13 58 -13 66 -1 3 5 -9 9 -26
9 -30 -1 -53 17 -43 34 3 4 23 8 45 8 27 0 39 4 39 14 0 20 -28 46 -50 46 -10
0 -26 -7 -34 -16z m62 -21 c2 -9 -8 -13 -33 -13 -33 0 -36 2 -25 15 15 18 51
16 58 -2z"/>
<path d="M1050 3090 c-50 -50 11 -129 70 -90 11 8 8 10 -15 8 -36 -2 -55 7
-55 28 0 10 12 14 40 14 32 0 40 4 40 18 0 42 -47 55 -80 22z m64 -16 c4 -10
-3 -14 -29 -14 -37 0 -46 13 -18 28 20 12 39 6 47 -14z"/>
<path d="M1253 3050 c0 -36 2 -50 4 -32 2 17 2 47 0 65 -2 17 -4 3 -4 -33z"/>
<path d="M1313 3050 c0 -53 1 -57 4 -18 3 33 10 51 22 57 27 15 41 -1 51 -55
l8 -49 -1 54 c-2 62 -22 85 -56 64 -15 -10 -21 -10 -24 0 -3 7 -5 -17 -4 -53z"/>
<path d="M1449 3089 c-23 -23 -24 -47 -3 -78 13 -18 23 -22 45 -17 24 5 29 2
29 -15 0 -24 -38 -40 -64 -27 -14 8 -17 7 -14 -4 7 -20 57 -22 79 -2 15 14 19
31 19 89 l0 71 -36 1 c-23 1 -43 -6 -55 -18z m71 -39 c0 -34 -26 -53 -53 -39
-21 12 -22 52 -1 73 23 23 54 4 54 -34z"/>
<path d="M1663 3103 c-7 -2 -13 -9 -13 -14 0 -6 7 -6 19 0 13 7 24 6 37 -3 17
-13 16 -15 -18 -21 -41 -8 -58 -36 -38 -60 14 -17 46 -20 55 -5 4 6 -5 10 -20
10 -38 0 -30 34 8 38 24 3 28 0 23 -15 -3 -10 -1 -25 4 -33 7 -11 10 2 10 41
0 64 -19 82 -67 62z"/>
<path d="M2170 3095 c0 -8 5 -15 10 -15 6 0 10 7 10 15 0 8 -4 15 -10 15 -5 0
-10 -7 -10 -15z"/>
<path d="M2560 3099 c-12 -8 -10 -10 9 -5 14 3 31 0 39 -7 12 -9 8 -13 -19
-22 -42 -14 -58 -38 -40 -59 16 -19 47 -21 57 -4 5 7 2 9 -8 6 -21 -9 -42 7
-35 26 4 9 18 16 32 16 21 0 25 -4 21 -17 -3 -10 -1 -25 4 -33 7 -11 10 2 10
41 0 43 -4 58 -16 63 -22 9 -37 7 -54 -5z"/>
<path d="M2682 3050 c1 -65 1 -65 7 -15 5 45 8 50 31 50 23 0 25 -4 28 -47 4
-60 22 -63 22 -5 0 46 14 69 36 60 9 -3 14 -22 14 -54 0 -28 5 -49 11 -49 6 0
9 20 7 51 -3 59 -24 82 -56 63 -12 -8 -22 -8 -35 0 -12 8 -22 8 -36 -1 -15
-10 -21 -10 -24 0 -3 7 -5 -17 -5 -53z"/>
<path d="M415 3011 c-3 -5 -1 -12 5 -16 5 -3 10 1 10 9 0 18 -6 21 -15 7z"/>
<path d="M2170 3005 c0 -8 5 -15 10 -15 6 0 10 7 10 15 0 8 -4 15 -10 15 -5 0
-10 -7 -10 -15z"/>
<path d="M11425 2605 c-24 -23 -25 -30 -25 -140 0 -110 1 -117 25 -140 24 -25
27 -25 200 -25 173 0 176 0 200 25 24 23 25 30 25 140 0 110 -1 117 -25 140
-24 25 -27 25 -200 25 -173 0 -176 0 -200 -25z m299 -57 c9 -15 2 -27 -44 -73
-59 -60 -100 -73 -100 -33 0 26 98 130 119 126 8 -2 19 -11 25 -20z m-96 -15
c2 -9 -9 -13 -37 -13 l-41 0 0 -65 0 -65 65 0 65 0 0 40 c0 29 4 40 15 40 19
0 21 -80 3 -98 -7 -7 -41 -12 -85 -12 -86 0 -93 8 -93 95 0 80 11 97 62 93 23
-2 43 -9 46 -15z"/>
<path d="M11650 2495 c-24 -25 -42 -45 -39 -45 3 0 25 20 49 45 24 25 42 45
39 45 -3 0 -25 -20 -49 -45z"/>
<path d="M12175 2605 c-24 -23 -25 -30 -25 -140 0 -110 1 -117 25 -140 24 -25
27 -25 200 -25 173 0 176 0 200 25 24 23 25 30 25 140 0 110 -1 117 -25 140
-24 25 -27 25 -200 25 -173 0 -176 0 -200 -25z m249 -41 c29 -4 46 -12 46 -20
0 -11 -21 -14 -95 -14 -76 0 -95 3 -95 14 0 13 15 18 81 24 9 1 37 -1 63 -4z
m30 -111 c-8 -97 -5 -93 -79 -93 -44 0 -67 4 -70 13 -2 6 -5 42 -7 80 l-4 67
83 0 84 0 -7 -67z"/>
<path d="M712 2503 c-1 -23 -8 -44 -14 -47 -10 -5 -10 -7 0 -12 7 -3 12 -24
12 -47 0 -30 3 -38 9 -27 6 8 7 27 4 42 -5 27 -4 28 36 28 37 0 41 -2 41 -25
0 -26 -33 -51 -52 -39 -7 4 -8 3 -4 -4 18 -30 66 2 66 44 0 17 5 24 20 24 15
0 20 -7 20 -28 0 -31 16 -52 39 -52 11 0 9 5 -7 16 -12 8 -22 26 -22 40 0 21
5 24 35 24 30 0 35 -3 35 -23 0 -13 -6 -29 -12 -36 -9 -9 -9 -12 -1 -7 6 3 14
0 16 -6 3 -7 6 6 6 30 1 37 4 42 25 42 44 0 63 -97 24 -124 -22 -16 -14 -23 8
-8 14 9 46 83 39 90 -3 3 -5 -1 -5 -8 0 -19 -16 -1 -25 28 -5 19 -3 22 19 22
20 0 24 -4 20 -17 -5 -17 -5 -17 6 0 8 12 24 17 60 17 46 0 50 -2 50 -23 0
-13 9 -32 20 -42 17 -15 24 -16 45 -7 23 11 25 10 25 -13 0 -29 -31 -49 -63
-41 l-22 6 22 -11 c18 -9 27 -8 48 5 22 14 25 24 25 71 0 52 1 55 25 55 23 0
25 -4 26 -42 l2 -43 6 40 c5 36 9 40 39 43 28 3 32 0 32 -22 0 -70 97 -74 102
-3 3 36 38 39 38 3 0 -26 23 -56 43 -56 7 0 19 5 27 11 12 9 12 10 -3 5 -28
-9 -57 11 -57 39 0 23 4 25 50 25 46 0 50 -2 50 -23 0 -43 47 -70 80 -46 12 8
10 9 -7 4 -27 -7 -63 10 -63 30 0 11 12 15 40 15 22 0 40 5 40 10 0 6 9 10 20
10 17 0 20 -7 21 -42 l2 -43 6 40 c5 36 9 40 39 43 29 3 34 -1 47 -32 20 -47
19 -62 -6 -87 -12 -12 -15 -19 -8 -17 19 6 54 69 43 76 -5 4 -15 19 -21 35
-12 26 -11 27 13 27 23 0 26 -3 20 -27 l-5 -28 11 25 c7 14 15 27 19 30 3 3 6
13 6 23 0 12 -4 14 -11 7 -14 -14 -76 -13 -76 3 0 9 -3 8 -9 -2 -7 -11 -9 -11
-13 0 -4 12 -8 12 -22 0 -15 -13 -19 -13 -27 0 -6 10 -9 10 -9 2 0 -16 -42
-17 -57 -2 -8 8 -21 8 -47 -2 -29 -10 -40 -10 -59 0 -18 10 -30 10 -45 2 -26
-14 -67 -14 -93 0 -14 7 -29 6 -55 -3 -29 -10 -37 -10 -44 2 -7 12 -11 12 -25
0 -14 -12 -18 -12 -26 1 -6 10 -9 10 -9 2 0 -7 -11 -13 -25 -13 -14 0 -25 6
-25 13 0 7 -3 8 -8 2 -4 -5 -18 -11 -32 -13 -21 -2 -22 -1 -10 8 12 10 11 10
-5 4 -39 -15 -127 -17 -136 -3 -6 10 -9 11 -9 2 0 -8 -13 -13 -33 -13 -18 0
-39 6 -46 13 -11 10 -13 10 -7 0 5 -9 0 -13 -13 -13 -10 0 -22 6 -24 13 -4 10
-6 10 -6 0 -1 -8 -15 -13 -36 -13 -21 0 -35 5 -35 13 0 8 -3 8 -9 -2 -9 -13
-32 -12 -76 4 -15 5 -17 5 -5 -3 11 -8 7 -11 -17 -10 -30 1 -32 4 -36 42 l-4
41 -1 -42z m745 -39 c-3 -3 -12 -4 -19 -1 -8 3 -5 6 6 6 11 1 17 -2 13 -5z
m-207 -49 c0 -20 -24 -45 -44 -45 -12 0 -36 33 -36 51 0 16 7 19 40 19 36 0
40 -3 40 -25z m230 0 c0 -14 -8 -29 -20 -35 -28 -15 -60 4 -60 35 0 22 4 25
40 25 36 0 40 -3 40 -25z m228 18 c-10 -2 -28 -2 -40 0 -13 2 -5 4 17 4 22 1
32 -1 23 -4z"/>
<path d="M303 2523 c-7 -2 -13 -9 -13 -14 0 -6 9 -5 21 1 15 9 24 8 35 -1 23
-19 16 -43 -26 -84 -54 -53 -52 -65 11 -65 31 0 48 4 44 10 -3 6 -25 10 -48
10 l-42 0 43 40 c47 43 55 82 23 100 -21 11 -29 11 -48 3z"/>
<path d="M415 2381 c-3 -5 -1 -12 5 -16 5 -3 10 1 10 9 0 18 -6 21 -15 7z"/>
<path d="M11425 1975 c-24 -23 -25 -30 -25 -140 0 -110 1 -117 25 -140 24 -25
27 -25 200 -25 173 0 176 0 200 25 24 23 25 30 25 140 0 110 -1 117 -25 140
-24 25 -27 25 -200 25 -173 0 -176 0 -200 -25z m299 -57 c9 -15 2 -27 -44 -73
-59 -60 -100 -73 -100 -33 0 26 98 130 119 126 8 -2 19 -11 25 -20z m-96 -15
c2 -9 -9 -13 -37 -13 l-41 0 0 -65 0 -65 65 0 65 0 0 40 c0 29 4 40 15 40 19
0 21 -80 3 -98 -7 -7 -41 -12 -85 -12 -86 0 -93 8 -93 95 0 80 11 97 62 93 23
-2 43 -9 46 -15z"/>
<path d="M11650 1865 c-24 -25 -42 -45 -39 -45 3 0 25 20 49 45 24 25 42 45
39 45 -3 0 -25 -20 -49 -45z"/>
<path d="M12175 1975 c-24 -23 -25 -30 -25 -140 0 -110 1 -117 25 -140 24 -25
27 -25 200 -25 173 0 176 0 200 25 24 23 25 30 25 140 0 110 -1 117 -25 140
-24 25 -27 25 -200 25 -173 0 -176 0 -200 -25z m249 -41 c29 -4 46 -12 46 -20
0 -11 -21 -14 -95 -14 -76 0 -95 3 -95 14 0 13 15 18 81 24 9 1 37 -1 63 -4z
m30 -111 c-8 -97 -5 -93 -79 -93 -44 0 -67 4 -70 13 -2 6 -5 42 -7 80 l-4 67
83 0 84 0 -7 -67z"/>
<path d="M732 1898 c-7 -7 -12 -20 -12 -30 0 -10 -5 -18 -11 -18 -8 0 -8 -4
-1 -13 6 -7 12 -35 15 -62 l3 -50 2 52 c2 38 7 55 20 62 16 10 16 10 0 11 -25
0 -22 25 5 43 16 12 18 16 7 16 -9 1 -21 -4 -28 -11z"/>
<path d="M1120 1875 c0 -33 -2 -34 -28 -29 -37 8 -62 -17 -62 -61 0 -42 29
-63 66 -47 17 8 24 8 28 -1 2 -7 5 30 5 81 1 50 -1 92 -4 92 -3 0 -5 -16 -5
-35z m-5 -66 c10 -31 -4 -59 -29 -59 -46 0 -62 48 -25 74 25 17 46 12 54 -15z"/>
<path d="M1320 1820 c0 -53 4 -90 10 -90 6 0 10 20 10 45 0 33 5 47 18 54 27
15 42 -5 42 -56 0 -24 5 -43 11 -43 6 0 9 20 7 51 -3 60 -24 82 -58 61 -19
-11 -20 -10 -20 28 0 22 -4 40 -10 40 -6 0 -10 -37 -10 -90z"/>
<path d="M300 1889 c-12 -8 -11 -9 5 -5 11 3 26 2 33 -3 22 -13 10 -46 -18
-49 -24 -4 -23 -4 8 -17 55 -24 28 -86 -31 -70 -19 5 -19 4 -5 -5 46 -29 100
29 64 69 -15 16 -15 19 -1 31 19 16 19 25 -1 44 -18 19 -33 20 -54 5z"/>
<path d="M1925 1875 c-5 -11 -13 -23 -19 -27 -7 -5 -7 -8 2 -8 8 0 12 -15 12
-43 0 -24 5 -48 12 -55 15 -15 38 -16 38 -2 0 6 -7 10 -15 10 -23 0 -20 76 3
89 15 9 16 10 0 11 -9 0 -18 10 -21 23 -3 21 -4 21 -12 2z"/>
<path d="M1251 1868 c0 -10 -6 -18 -13 -18 -9 0 -9 -3 0 -12 7 -7 12 -31 12
-55 0 -30 5 -45 15 -50 23 -8 33 7 12 18 -23 13 -23 74 1 88 15 9 15 10 0 11
-9 0 -19 8 -21 18 -4 16 -5 16 -6 0z"/>
<path d="M796 1834 c-23 -22 -21 -81 3 -94 24 -13 58 -13 66 -1 3 5 -9 9 -26
9 -30 -1 -53 17 -43 34 3 4 23 8 45 8 27 0 39 4 39 14 0 20 -28 46 -50 46 -10
0 -26 -7 -34 -16z m62 -21 c2 -9 -8 -13 -33 -13 -33 0 -36 2 -25 15 15 18 51
16 58 -2z"/>
<path d="M920 1830 c-50 -50 11 -129 70 -90 11 8 8 10 -15 8 -36 -2 -55 7 -55
28 0 10 12 14 40 14 32 0 40 4 40 18 0 42 -47 55 -80 22z m64 -16 c4 -10 -3
-14 -29 -14 -37 0 -46 13 -18 28 20 12 39 6 47 -14z"/>
<path d="M1470 1830 c-50 -50 11 -129 70 -90 11 8 8 10 -15 8 -36 -2 -55 7
-55 28 0 10 12 14 40 14 32 0 40 4 40 18 0 42 -47 55 -80 22z m64 -16 c4 -10
-3 -14 -29 -14 -37 0 -46 13 -18 28 20 12 39 6 47 -14z"/>
<path d="M1650 1760 c0 -53 4 -90 10 -90 6 0 10 16 10 35 0 33 1 34 29 29 24
-5 32 -1 47 21 31 47 -12 115 -56 87 -12 -7 -20 -8 -20 -2 0 5 -4 10 -10 10
-6 0 -10 -37 -10 -90z m90 35 c0 -34 -26 -58 -51 -45 -24 14 -26 65 -2 79 25
13 53 -5 53 -34z"/>
<path d="M1800 1830 c-24 -24 -25 -48 -4 -78 16 -23 49 -29 74 -11 12 8 9 9
-11 5 -29 -6 -66 15 -55 32 4 7 23 12 42 12 26 0 34 4 34 18 0 42 -47 55 -80
22z m70 -20 c0 -6 -16 -10 -35 -10 -38 0 -46 13 -18 29 19 10 53 -2 53 -19z"/>
<path d="M415 1751 c-3 -5 -1 -12 5 -16 5 -3 10 1 10 9 0 18 -6 21 -15 7z"/>
<path d="M11425 1345 c-24 -23 -25 -30 -25 -140 0 -110 1 -117 25 -140 24 -25
27 -25 200 -25 173 0 176 0 200 25 24 23 25 30 25 140 0 110 -1 117 -25 140
-24 25 -27 25 -200 25 -173 0 -176 0 -200 -25z m299 -57 c9 -15 2 -27 -44 -73
-59 -60 -100 -73 -100 -33 0 26 98 130 119 126 8 -2 19 -11 25 -20z m-96 -15
c2 -9 -9 -13 -37 -13 l-41 0 0 -65 0 -65 65 0 65 0 0 40 c0 29 4 40 15 40 19
0 21 -80 3 -98 -7 -7 -41 -12 -85 -12 -86 0 -93 8 -93 95 0 80 11 97 62 93 23
-2 43 -9 46 -15z"/>
<path d="M11650 1235 c-24 -25 -42 -45 -39 -45 3 0 25 20 49 45 24 25 42 45
39 45 -3 0 -25 -20 -49 -45z"/>
<path d="M12175 1345 c-24 -23 -25 -30 -25 -140 0 -110 1 -117 25 -140 24 -25
27 -25 200 -25 173 0 176 0 200 25 24 23 25 30 25 140 0 110 -1 117 -25 140
-24 25 -27 25 -200 25 -173 0 -176 0 -200 -25z m249 -41 c29 -4 46 -12 46 -20
0 -11 -21 -14 -95 -14 -76 0 -95 3 -95 14 0 13 15 18 81 24 9 1 37 -1 63 -4z
m30 -111 c-8 -97 -5 -93 -79 -93 -44 0 -67 4 -70 13 -2 6 -5 42 -7 80 l-4 67
83 0 84 0 -7 -67z"/>
<path d="M1312 1243 c-2 -47 -17 -54 -66 -32 -20 9 -29 9 -41 -1 -14 -12 -18
-11 -26 1 -6 10 -9 10 -9 2 0 -17 -52 -17 -68 -1 -10 10 -17 10 -32 0 -16 -9
-24 -10 -39 0 -15 9 -23 9 -36 -2 -14 -12 -18 -12 -26 1 -6 10 -9 10 -9 2 0
-16 -34 -17 -62 -2 -16 8 -31 8 -59 -1 -30 -10 -42 -10 -53 -1 -11 9 -23 9
-55 -1 -38 -12 -55 -28 -30 -28 5 0 8 -4 5 -9 -10 -16 12 -59 33 -66 11 -3 29
-1 38 5 16 10 15 10 -4 5 -15 -4 -29 1 -42 14 -32 32 -17 51 38 51 43 0 46 -2
48 -27 2 -34 30 -56 63 -48 29 8 40 21 40 53 0 15 6 22 19 22 16 0 21 -8 24
-42 l4 -43 1 43 c2 41 3 42 36 42 34 0 35 -1 39 -42 l4 -43 1 43 c2 39 4 42
31 42 28 0 30 -3 34 -42 l4 -43 1 43 c2 38 5 42 27 42 24 0 25 -2 27 -72 1
-47 3 -58 5 -31 4 41 5 42 29 31 19 -9 28 -8 44 7 11 10 20 29 20 42 0 16 6
23 19 23 16 0 21 -8 24 -42 l4 -43 1 43 c2 35 5 42 22 42 15 0 20 -7 20 -25 0
-34 43 -62 73 -47 21 11 21 11 -4 6 -17 -4 -32 0 -43 11 -26 26 -19 35 29 35
25 0 45 5 45 10 0 6 9 10 20 10 16 0 20 -7 20 -34 0 -22 6 -36 16 -40 24 -9
31 -7 12 5 -11 6 -18 22 -18 39 0 26 4 30 29 30 26 0 30 -4 33 -32 2 -25 9
-35 31 -42 19 -7 31 -6 40 3 10 10 9 11 -5 6 -21 -8 -58 11 -58 30 0 11 12 15
40 15 22 0 40 5 40 10 0 7 30 10 83 8 74 -3 82 -5 85 -24 4 -25 -20 -47 -42
-38 -23 9 -20 33 7 44 22 10 22 10 -3 7 -30 -2 -39 -37 -15 -57 13 -11 21 -11
35 -2 14 9 20 8 23 -1 3 -7 6 7 6 31 1 38 3 42 26 42 14 0 25 -4 25 -9 0 -5
12 -12 26 -15 37 -10 28 -42 -10 -39 -21 2 -26 -1 -18 -9 6 -6 22 -8 36 -4 35
9 34 41 -1 60 l-28 15 48 1 c26 0 47 -4 47 -9 0 -5 12 -12 26 -15 37 -10 28
-42 -10 -39 -21 2 -26 -1 -18 -9 6 -6 22 -8 36 -4 35 9 34 41 -1 60 l-28 15
47 1 47 0 4 -42 4 -43 1 43 c2 35 5 42 22 42 14 0 20 -7 20 -23 0 -13 9 -32
20 -42 17 -15 24 -16 45 -7 23 11 25 10 25 -13 0 -29 -31 -49 -63 -41 l-22 6
22 -11 c18 -9 27 -8 48 5 22 14 25 24 25 71 0 52 1 55 24 55 22 0 25 -5 29
-42 l4 -43 1 43 c2 41 3 42 36 42 34 0 35 -1 39 -42 l4 -43 1 43 c2 37 5 42
26 42 22 0 25 -5 29 -42 l4 -43 1 43 c2 39 4 42 31 42 28 0 30 -3 34 -42 l4
-43 1 43 c2 41 3 42 36 42 34 0 35 -1 39 -42 l4 -43 1 43 c2 34 6 42 21 42 15
0 21 -8 23 -32 2 -25 9 -35 31 -42 19 -7 31 -6 40 3 10 10 9 11 -5 6 -21 -8
-58 11 -58 30 0 11 12 15 40 15 22 0 40 5 40 10 0 6 9 10 19 10 16 0 21 -8 24
-42 l4 -43 1 43 c2 41 3 42 36 42 34 0 35 -1 39 -42 l4 -43 1 43 c2 38 5 42
27 42 22 0 25 -4 25 -34 0 -22 6 -36 16 -40 24 -9 31 -7 12 5 -11 6 -18 22
-18 39 0 25 4 30 24 30 26 0 96 -36 96 -50 0 -12 -28 -20 -47 -13 -15 5 -16 3
-6 -7 10 -11 18 -11 38 -2 33 15 32 38 -2 56 l-28 15 33 1 c35 0 41 10 17 30
-12 10 -21 10 -41 1 -14 -6 -39 -11 -57 -10 -27 0 -29 2 -12 9 16 7 17 9 3 9
-9 1 -19 9 -21 19 -4 16 -5 16 -6 0 0 -10 -7 -18 -13 -18 -9 0 -8 -4 2 -10 11
-7 8 -10 -15 -10 -17 0 -37 6 -43 12 -10 10 -17 10 -34 -1 -17 -11 -22 -11
-29 1 -7 10 -9 10 -9 1 0 -16 -31 -17 -65 -1 -19 9 -28 9 -37 0 -15 -15 -71
-15 -86 0 -9 9 -18 9 -38 -1 -19 -8 -30 -9 -38 -1 -13 13 -29 13 -21 -1 9 -13
-27 -8 -37 6 -5 6 -8 5 -8 -2 0 -17 -52 -17 -68 -1 -10 10 -17 10 -34 -1 -17
-11 -22 -11 -29 1 -7 10 -9 10 -9 1 0 -7 -11 -13 -25 -13 -14 0 -25 6 -25 13
0 7 -3 8 -8 2 -4 -5 -18 -11 -32 -13 -21 -2 -22 -1 -10 8 12 10 11 11 -5 5
-43 -16 -77 -18 -86 -4 -6 10 -9 11 -9 2 0 -16 -32 -17 -47 -2 -8 8 -21 8 -46
-2 -29 -10 -39 -10 -51 0 -12 10 -22 10 -49 0 -28 -10 -41 -10 -65 0 -22 9
-36 10 -50 2 -27 -15 -114 -14 -147 1 -19 9 -28 9 -37 0 -7 -7 -30 -12 -53
-11 -31 0 -36 2 -20 9 16 7 17 9 3 9 -9 1 -19 9 -21 19 -4 16 -5 16 -6 0 0
-10 -7 -18 -13 -18 -9 0 -8 -4 2 -10 11 -7 8 -10 -15 -10 -17 0 -36 5 -43 12
-9 9 -18 9 -37 0 -14 -7 -37 -12 -50 -12 -21 0 -24 5 -28 43 l-4 42 -1 -42z
m505 -39 c-3 -3 -12 -4 -19 -1 -8 3 -5 6 6 6 11 1 17 -2 13 -5z m120 0 c-3 -3
-12 -4 -19 -1 -8 3 -5 6 6 6 11 1 17 -2 13 -5z m100 0 c-3 -3 -12 -4 -19 -1
-8 3 -5 6 6 6 11 1 17 -2 13 -5z m-1127 -49 c0 -31 -32 -50 -59 -35 -45 23
-32 60 20 60 35 0 39 -3 39 -25z m350 6 c0 -18 -24 -51 -36 -51 -20 0 -44 25
-44 45 0 22 4 25 40 25 33 0 40 -3 40 -19z m173 12 c-13 -2 -33 -2 -45 0 -13
2 -3 4 22 4 25 0 35 -2 23 -4z m205 0 c-10 -2 -28 -2 -40 0 -13 2 -5 4 17 4
22 1 32 -1 23 -4z m592 -18 c0 -20 -24 -45 -44 -45 -12 0 -36 33 -36 51 0 16
7 19 40 19 36 0 40 -3 40 -25z m468 18 c-10 -2 -28 -2 -40 0 -13 2 -5 4 17 4
22 1 32 -1 23 -4z"/>
<path d="M313 1211 c-24 -33 -43 -62 -43 -66 0 -3 18 -5 40 -5 34 0 40 -3 41
-22 1 -21 2 -21 6 -3 3 11 10 23 17 28 8 5 8 9 -1 15 -6 4 -13 31 -15 61 l-3
53 -42 -61z m34 -48 c-3 -2 -17 -3 -31 -1 l-26 3 27 39 28 39 3 -38 c2 -20 1
-39 -1 -42z"/>
<path d="M415 1121 c-3 -5 -1 -12 5 -16 5 -3 10 1 10 9 0 18 -6 21 -15 7z"/>
<path d="M11425 715 c-24 -23 -25 -30 -25 -140 0 -110 1 -117 25 -140 24 -25
27 -25 200 -25 173 0 176 0 200 25 24 23 25 30 25 140 0 110 -1 117 -25 140
-24 25 -27 25 -200 25 -173 0 -176 0 -200 -25z m299 -57 c9 -15 2 -27 -44 -73
-59 -60 -100 -73 -100 -33 0 26 98 130 119 126 8 -2 19 -11 25 -20z m-96 -15
c2 -9 -9 -13 -37 -13 l-41 0 0 -65 0 -65 65 0 65 0 0 40 c0 29 4 40 15 40 19
0 21 -80 3 -98 -7 -7 -41 -12 -85 -12 -86 0 -93 8 -93 95 0 80 11 97 62 93 23
-2 43 -9 46 -15z"/>
<path d="M11650 605 c-24 -25 -42 -45 -39 -45 3 0 25 20 49 45 24 25 42 45 39
45 -3 0 -25 -20 -49 -45z"/>
<path d="M12175 715 c-24 -23 -25 -30 -25 -140 0 -110 1 -117 25 -140 24 -25
27 -25 200 -25 173 0 176 0 200 25 24 23 25 30 25 140 0 110 -1 117 -25 140
-24 25 -27 25 -200 25 -173 0 -176 0 -200 -25z m249 -41 c29 -4 46 -12 46 -20
0 -11 -21 -14 -95 -14 -76 0 -95 3 -95 14 0 13 15 18 81 24 9 1 37 -1 63 -4z
m30 -111 c-8 -97 -5 -93 -79 -93 -44 0 -67 4 -70 13 -2 6 -5 42 -7 80 l-4 67
83 0 84 0 -7 -67z"/>
<path d="M810 560 c0 -53 4 -90 10 -90 6 0 10 37 10 90 0 53 -4 90 -10 90 -6
0 -10 -37 -10 -90z"/>
<path d="M1664 560 c0 -52 1 -74 3 -47 2 26 2 68 0 95 -2 26 -3 4 -3 -48z"/>
<path d="M295 604 c-3 -20 -5 -37 -3 -38 2 -1 17 -6 33 -12 37 -12 46 -47 16
-63 -11 -6 -28 -8 -38 -4 -15 5 -16 3 -6 -7 10 -10 20 -11 40 -4 23 8 28 15
28 44 0 30 -4 36 -30 44 -39 13 -38 11 -30 35 4 14 15 21 30 21 13 0 27 5 30
10 4 6 -8 10 -28 10 -32 0 -35 -3 -42 -36z"/>
<path d="M716 577 c-22 -16 -13 -41 20 -55 41 -19 30 -37 -21 -32 -15 1 -17
-1 -9 -10 16 -16 55 -9 68 13 11 19 9 21 -41 54 -15 10 -16 14 -4 22 8 5 20 7
28 4 7 -3 13 0 13 6 0 15 -32 14 -54 -2z"/>
<path d="M880 570 c-50 -50 11 -129 70 -90 11 8 8 10 -15 8 -36 -2 -55 7 -55
28 0 10 12 14 40 14 32 0 40 4 40 18 0 42 -47 55 -80 22z m64 -16 c4 -10 -3
-14 -29 -14 -37 0 -46 13 -18 28 20 12 39 6 47 -14z"/>
<path d="M1006 574 c-23 -22 -21 -81 3 -94 24 -13 58 -13 66 -1 3 5 -9 9 -26
9 -30 -1 -53 17 -43 34 3 4 23 8 45 8 27 0 39 4 39 14 0 20 -28 46 -50 46 -10
0 -26 -7 -34 -16z m62 -21 c2 -9 -8 -13 -33 -13 -33 0 -36 2 -25 15 15 18 51
16 58 -2z"/>
<path d="M1120 500 c0 -53 4 -90 10 -90 6 0 10 16 10 35 0 33 1 34 29 29 24
-5 32 -1 47 21 31 47 -12 115 -56 87 -12 -7 -20 -8 -20 -2 0 5 -4 10 -10 10
-6 0 -10 -37 -10 -90z m90 35 c0 -34 -26 -58 -51 -45 -24 14 -26 65 -2 79 25
13 53 -5 53 -34z"/>
<path d="M1337 572 c-21 -23 -22 -66 -1 -86 18 -19 60 -21 70 -4 5 7 1 9 -13
6 -25 -7 -53 8 -53 27 0 11 12 15 40 15 44 0 52 16 24 44 -21 21 -47 20 -67
-2z m63 -18 c0 -9 -11 -14 -30 -14 -33 0 -39 14 -13 28 21 12 43 5 43 -14z"/>
<path d="M1460 579 c-12 -8 -10 -10 9 -5 14 3 31 0 39 -7 12 -9 8 -13 -19 -22
-42 -14 -58 -38 -40 -59 16 -19 47 -21 57 -4 5 7 2 9 -8 6 -21 -9 -42 7 -35
26 4 9 18 16 32 16 21 0 25 -4 21 -17 -3 -10 -1 -25 4 -33 7 -11 10 2 10 41 0
43 -4 58 -16 63 -22 9 -37 7 -54 -5z"/>
<path d="M1582 530 c1 -60 1 -62 7 -20 5 34 12 47 29 55 12 5 22 13 22 17 0
12 -28 9 -36 -3 -4 -8 -9 -7 -15 2 -5 9 -8 -11 -7 -51z"/>
<path d="M1700 585 c0 -2 9 -28 21 -57 21 -55 19 -98 -6 -98 -8 0 -15 -4 -15
-10 0 -14 26 -12 37 3 19 24 72 168 61 165 -7 -3 -19 -26 -28 -54 l-17 -49
-19 53 c-10 28 -22 52 -26 52 -5 0 -8 -2 -8 -5z"/>
<path d="M415 491 c-3 -5 -1 -12 5 -16 5 -3 10 1 10 9 0 18 -6 21 -15 7z"/>
</g>
</svg>
